<svg width="76" height="28" viewBox="0 0 76 28" fill="none" xmlns="http://www.w3.org/2000/svg">
<path d="M72.2 13.9001C72.2 12.1001 70.6594 10.6001 68.8108 10.6001C66.9622 10.6001 65.4216 12.1001 65.4216 13.9001C65.4216 14.8001 65.4216 20.6001 65.4216 20.6001H61.6216C61.6216 20.6001 61.6216 15.8001 61.6216 13.9001C61.6216 10.0001 64.8054 6.90009 68.8108 6.90009C72.8162 6.90009 76 10.0001 76 13.9001C76 15.9001 76 20.6001 76 20.6001H72.3027C72.2 20.6001 72.2 14.8001 72.2 13.9001Z" fill="#090909"/>
<path d="M45.6 13.9001C45.6 10.0001 48.7838 6.90009 52.7892 6.90009C56.7946 6.90009 59.9784 10.0001 59.9784 13.9001C59.9784 17.8001 56.7946 20.9001 52.7892 20.9001C48.8865 20.9001 45.6 17.8001 45.6 13.9001ZM52.7892 17.2001C54.7406 17.2001 56.2811 15.7001 56.2811 13.8001C56.2811 11.9001 54.7406 10.4001 52.7892 10.4001C50.8379 10.4001 49.2973 11.9001 49.2973 13.8001C49.4 15.7001 50.9406 17.3001 52.7892 17.2001C52.7892 17.3001 52.7892 17.3001 52.7892 17.2001Z" fill="#090909"/>
<path d="M36.7675 11.3999C36.254 10.9999 36.3567 10.3999 37.281 10.1999C38.9243 9.89989 40.6702 10.1999 42.1081 10.8999L43.9567 8.49989C42.5189 7.49989 40.7729 6.89989 39.027 6.89989C39.027 6.89989 34.9189 6.39989 33.1729 9.49989C32.3513 11.1999 32.9675 13.1999 34.6108 14.1999C36.3567 15.2999 39.5405 15.6999 40.4648 16.1999C41.3891 16.6999 40.9783 17.4999 39.8486 17.6999C37.8973 17.8999 35.9459 17.3999 34.4054 16.3999L32.5567 18.7999C34.0973 19.8999 35.9459 20.6999 37.7946 20.8999C37.7946 20.8999 41.6973 21.5999 43.854 18.8999C45.0864 17.2999 44.881 14.9999 43.2378 13.7999C43.0324 13.5999 42.7243 13.4999 42.5189 13.3999C40.5675 12.3999 37.6918 11.9999 36.7675 11.3999Z" fill="#090909"/>
<path d="M19 23.3999C20.1297 24.0999 21.3622 24.5999 22.5946 24.6999C26.7027 24.7999 27.0108 20.5999 27.0108 19.5999C26.0865 20.3999 24.854 20.8999 23.6216 20.8999C19.7189 20.8999 16.5351 17.8999 16.4324 14.0999V13.9999C16.4324 12.0999 16.4324 7.09991 16.4324 7.09991H20.2324C20.2324 7.09991 20.2324 13.0999 20.2324 13.9999C20.2324 15.7999 21.773 17.2999 23.6216 17.2999C25.4703 17.2999 27.0108 15.7999 27.0108 13.9999C27.0108 13.1999 27.0108 7.09991 27.0108 7.09991H30.8108V13.9999C30.8108 20.0999 31.1189 26.2999 25.0594 27.7999C22.2865 28.3999 19.3081 27.6999 17.0486 25.8999L19 23.3999Z" fill="#090909"/>
<path d="M14.4811 0H10.6811V6.8H7.18919C3.18378 6.8 0 9.9 0 13.8C0 17.7 3.18378 20.8 7.18919 20.8C11.1946 20.8 14.3784 17.7 14.3784 13.8C14.3784 11.9 14.3784 6.8 14.3784 6.8L14.4811 0ZM10.6811 13.9C10.6811 15.7 9.14054 17.2 7.18919 17.2C5.34054 17.2 3.8 15.7 3.8 13.8C3.8 12 5.34054 10.5 7.18919 10.5H10.5784L10.6811 13.9Z" fill="#090909"/>
</svg>
